<?xml version="1.0" encoding="UTF-8"?>
<svg id="Layer_1" data-name="Layer 1" xmlns="http://www.w3.org/2000/svg" xmlns:xlink="http://www.w3.org/1999/xlink" viewBox="0 0 451.53 496.62">
  <defs>
    <style>
      .cls-1 {
        fill: url(#linear-gradient);
        stroke-width: 0px;
      }
    </style>
    <linearGradient id="linear-gradient" x1="225.76" y1="496.62" x2="225.76" y2="0" gradientUnits="userSpaceOnUse">
      <stop offset="0" stop-color="#6586d6"/>
      <stop offset="1" stop-color="#92b3ff"/>
    </linearGradient>
  </defs>
  <path class="cls-1" d="M451.33,248.23c0,56.78-.54,113.56.19,170.33.48,37.81-27.33,71.65-65.41,76.84-3.36.46-6.75.89-10.13.89-78.78.05-157.58.79-236.35-.19-70.27-.87-126.59-51.93-137.49-117.42C-.45,363.06.17,346.83,0,330.86c-.09-8.82,8.44-16.59,17.53-16.79,12.27-.27,24.55-.1,36.83-.15,6.62-.03,6.84-.24,6.84-6.97,0-74.51.53-149.03-.21-223.53-.39-39.71,27.44-74.8,66.12-81.81,4.83-.88,9.78-1.53,14.68-1.53C219.89-.02,298-.01,376.1.02c36.56.01,68.55,27.44,74.22,63.66.71,4.51.97,9.14.97,13.71.06,56.95.04,113.9.04,170.85ZM412.28,248.45c0-56.78.05-113.55-.09-170.33-.01-4.69-.64-9.6-2.13-14.02-5.36-15.93-19.1-24.9-37.72-24.91-75.71-.05-151.42-.04-227.13.04-4.22,0-8.55.44-12.65,1.4-19.18,4.51-32.26,21.06-32.27,40.8-.05,75.19-.02,150.38-.02,225.57,0,.85.07,1.71,0,2.56-.24,3.09,1.33,4.35,4.25,4.33,1.7-.01,3.41.03,5.12.03,55.59,0,111.18.1,166.77-.08,10.42-.03,17.11,4.5,20.94,13.89,1.55,3.78,3.22,7.52,4.69,11.33,9.28,23.97,18.15,48.1,27.9,71.87,5.64,13.75,13.23,26.56,24.39,36.83,6.94,6.38,14.85,10.05,24.58,8.79,20.4-2.64,33.36-17.19,33.37-37.77.03-56.78,0-113.55.01-170.33Z"/>
</svg>